<svg width="68" height="14" viewBox="0 0 68 14" fill="none" xmlns="http://www.w3.org/2000/svg">
<path d="M2.2925 1.56L2.2525 6.02L4.4125 6.06L6.4925 6L6.6125 6.16L6.4725 7.38L4.2525 7.32L2.2325 7.34L2.2125 9L2.2925 13H0.6725L0.7725 9.14L0.6725 0.179999H7.4925L7.6125 0.34L7.4725 1.62L4.5325 1.52L2.2925 1.56ZM10.7244 9.88L10.7644 13H9.28438L9.34438 10L9.28438 3.04H10.7844L10.7244 9.88ZM22.7202 10.02L22.7402 13H21.1402L15.9002 5.4H15.8002L15.7802 9.68L15.8202 13H14.4602L14.5202 10.06L14.4802 3.04H16.0602L21.3002 10.64H21.4402L21.4002 3.1L22.7802 3L22.7202 10.02ZM29.3142 2.94C30.1276 2.94 30.9409 3.1 31.7542 3.42L31.4942 4.9L31.2542 4.96C30.8809 4.66667 30.5276 4.45333 30.1942 4.32C29.8609 4.17333 29.5142 4.1 29.1542 4.1C28.5809 4.1 28.1276 4.25333 27.7942 4.56C27.4609 4.85333 27.2942 5.19333 27.2942 5.58C27.2942 5.96667 27.4542 6.28 27.7742 6.52C28.1076 6.76 28.6142 7.02667 29.2942 7.32C29.8942 7.58667 30.3676 7.82667 30.7142 8.04C31.0742 8.25333 31.3809 8.54 31.6342 8.9C31.9009 9.24667 32.0342 9.67333 32.0342 10.18C32.0342 10.7 31.8942 11.1867 31.6142 11.64C31.3342 12.08 30.9209 12.44 30.3742 12.72C29.8409 12.9867 29.2009 13.12 28.4542 13.12C27.9876 13.12 27.4942 13.0667 26.9742 12.96C26.4676 12.84 25.9942 12.6667 25.5542 12.44L25.7342 10.86L25.9342 10.78C26.3076 11.1533 26.7409 11.4467 27.2342 11.66C27.7409 11.86 28.2076 11.96 28.6342 11.96C29.1942 11.96 29.6542 11.8133 30.0142 11.52C30.3742 11.2133 30.5542 10.8467 30.5542 10.42C30.5542 10.02 30.3876 9.7 30.0542 9.46C29.7342 9.22 29.2276 8.94 28.5342 8.62C27.9609 8.36667 27.4876 8.13333 27.1142 7.92C26.7542 7.70667 26.4476 7.42667 26.1942 7.08C25.9409 6.72 25.8142 6.28667 25.8142 5.78C25.8142 5.24667 25.9542 4.76667 26.2342 4.34C26.5276 3.91333 26.9342 3.57333 27.4542 3.32C27.9876 3.06667 28.6076 2.94 29.3142 2.94ZM36.3103 9.88L36.3503 13H34.8703L34.9303 10L34.8703 3.04H36.3703L36.3103 9.88ZM43.9461 2.96C45.4661 2.96 46.6261 3.36667 47.4261 4.18C48.2394 4.99333 48.6461 6.16 48.6461 7.68C48.6461 9.42667 48.2061 10.7667 47.3261 11.7C46.4461 12.6333 45.1861 13.1 43.5461 13.1C43.0794 13.1 42.5194 13.0867 41.8661 13.06C41.2261 13.0467 40.6194 13.0267 40.0461 13L40.1061 10L40.0461 3.04L43.9461 2.96ZM43.7861 11.88C44.8528 11.88 45.6728 11.56 46.2461 10.92C46.8328 10.2667 47.1261 9.28667 47.1261 7.98C47.1261 6.7 46.8528 5.75333 46.3061 5.14C45.7594 4.52667 44.9328 4.22 43.8261 4.22C43.1728 4.22 42.4061 4.24667 41.5261 4.3L41.4861 9.88L41.5061 11.76C41.8928 11.7867 42.2994 11.8133 42.7261 11.84C43.1528 11.8667 43.5061 11.88 43.7861 11.88ZM57.4542 11.72L57.5742 11.84L57.4342 13H51.3742L51.4342 10L51.3742 3.04H57.4742L57.5742 3.16L57.4542 4.32L54.9342 4.24L52.8542 4.26L52.8342 7.28L54.8142 7.3L56.5542 7.24L56.6542 7.38L56.5342 8.56L54.6942 8.5L52.8342 8.52L52.8142 9.88L52.8342 11.78L54.7942 11.8L57.4542 11.72ZM64.6456 8.98C65.459 10.22 66.359 11.44 67.3456 12.64L67.3256 12.84C66.7656 13.0133 66.3056 13.1133 65.9456 13.14L65.6856 12.98C64.6723 11.4467 63.9056 10.24 63.3856 9.36L61.5056 9.38V9.88L61.5456 13H60.0656L60.1256 10L60.0656 3.04L63.4656 3.02C64.519 3.02 65.3256 3.26667 65.8856 3.76C66.459 4.25333 66.7456 4.96667 66.7456 5.9C66.7456 6.58 66.559 7.18667 66.1856 7.72C65.8256 8.25333 65.3123 8.67333 64.6456 8.98ZM61.5256 8.14L63.4056 8.2C64.5923 7.86667 65.1856 7.14 65.1856 6.02C65.1856 5.43333 65.0123 4.99333 64.6656 4.7C64.319 4.40667 63.7923 4.24667 63.0856 4.22L61.5456 4.24L61.5256 8.14Z" fill="white"/>
</svg>
